<svg width="300" height="300" viewBox="0 0 300 300" xmlns="http://www.w3.org/2000/svg">
  <defs>
    <linearGradient x1="0%" y1="0%" y2="100%" id="a">
      <stop stop-color="#124EFF" stop-opacity="0" offset="0%"/>
      <stop stop-color="#001485" offset="100%"/>
    </linearGradient>
    <linearGradient x1="0%" y1="-.001%" y2="100.001%" id="b">
      <stop stop-color="#124EFF" stop-opacity="0" offset="0%"/>
      <stop stop-color="#001485" offset="100%"/>
    </linearGradient>
    <linearGradient x1="-.001%" y1="0%" x2="100.001%" y2="100%" id="c">
      <stop stop-color="#124EFF" stop-opacity="0" offset="0%"/>
      <stop stop-color="#001485" offset="100%"/>
    </linearGradient>
    <linearGradient x1="0%" y1="-.001%" y2="100.001%" id="d">
      <stop stop-color="#124EFF" stop-opacity="0" offset="0%"/>
      <stop stop-color="#001485" offset="100%"/>
    </linearGradient>
  </defs>
  <g fill-rule="nonzero" fill="none">
    <path d="M8.526 199.831C3.004 184.207 0 167.391 0 149.874V99.916h99.916v99.915H8.526z" fill="#0080FF"/>
    <path d="M8.526 199.831C3.004 184.207 0 167.391 0 149.874V99.916h99.916v99.915H8.526z" fill-opacity=".1" fill="url(#a)"/>
    <path d="M100.016 291.354c-42.268-15.68-75.843-49.251-91.523-91.523h91.523v91.523z" fill="#0AF"/>
    <path d="M100.016 291.354c-42.268-15.68-75.843-49.251-91.523-91.523h91.523v91.523z" fill-opacity=".1" fill="url(#b)"/>
    <path d="M199.831 8.526v91.39H99.916V0h49.958c17.517 0 34.332 3.004 49.957 8.526z" fill="#0080FF"/>
    <path d="M199.831 8.526v91.39H99.916V0h49.958c17.517 0 34.332 3.004 49.957 8.526z" fill-opacity=".1" fill="url(#a)"/>
    <path d="M199.831 291.222c-15.624 5.52-32.44 8.525-49.957 8.525-17.517 0-34.333-3.004-49.958-8.526v-91.39h99.915v91.39z" fill="#00C8FF"/>
    <path d="M199.831 291.222c-15.624 5.52-32.44 8.525-49.957 8.525-17.517 0-34.333-3.004-49.958-8.526v-91.39h99.915v91.39z" fill-opacity=".1" fill="url(#a)"/>
    <path d="M291.22 199.831c-15.048 42.588-48.797 76.34-91.389 91.39v-91.39h91.39z" fill="#00D4FF"/>
    <path d="M291.22 199.831c-15.048 42.588-48.797 76.34-91.389 91.39v-91.39h91.39z" fill-opacity=".1" fill="url(#c)"/>
    <path d="M0 49.958C0 22.367 22.367 0 49.958 0h49.958v99.916H0V49.958zm49.958 24.979c13.795 0 24.979-11.184 24.979-24.98 0-13.795-11.184-24.978-24.98-24.978-13.795 0-24.978 11.183-24.978 24.979 0 13.795 11.183 24.979 24.979 24.979z" fill="#0560FF"/>
    <path d="M0 49.958C0 22.367 22.367 0 49.958 0h49.958v99.916H0V49.958zm49.958 24.979c13.795 0 24.979-11.184 24.979-24.98 0-13.795-11.184-24.978-24.98-24.978-13.795 0-24.978 11.183-24.978 24.979 0 13.795 11.183 24.979 24.979 24.979z" fill-opacity=".1" fill="url(#a)"/>
    <path d="M291.222 99.916c5.52 15.625 8.525 32.44 8.525 49.958 0 17.517-3.004 34.332-8.526 49.957h-91.39V99.916h91.39z" fill="#00C8FF"/>
    <path d="M291.222 99.916c5.52 15.625 8.525 32.44 8.525 49.958 0 17.517-3.004 34.332-8.526 49.957h-91.39V99.916h91.39z" fill-opacity=".1" fill="url(#a)"/>
    <path d="M199.831 8.526c42.588 15.05 76.34 48.799 91.39 91.39h-91.39V8.526z" fill="#0AF"/>
    <path d="M199.831 8.526c42.588 15.05 76.34 48.799 91.39 91.39h-91.39V8.526z" fill-opacity=".1" fill="url(#d)"/>
    <path fill="#0AF" d="M99.916 99.916h99.915v99.915H99.916z"/>
    <path fill-opacity=".1" fill="url(#a)" d="M99.916 99.916h99.915v99.915H99.916z"/>
  </g>
</svg>
