<svg xmlns="http://www.w3.org/2000/svg" width="211" height="71"><path fill="#31383C" fill-rule="evenodd" d="M8.227 17.334c-1.438 0-2.732-1.318-2.732-2.783 0-3.368 8.34-5.857 17.831-5.857.863 0 1.438 0 1.438-.732 0-1.318-2.876-1.758-2.876-3.954C21.888 1.664 24.62.2 28.071.2c3.451 0 6.183 1.464 6.183 3.808 0 2.196-2.875 2.49-2.875 3.954 0 .439.43.732 1.438.732 9.49 0 17.974 2.343 17.974 5.857 0 1.465-1.15 2.783-2.732 2.783H8.227zM51.222 30.66c3.452 2.197 4.746 6.15 4.17 9.812l-4.026 22.113c-.863 4.393-4.601 7.615-9.059 7.615H14.123c-4.458 0-8.196-3.222-9.06-7.615L1.039 40.472c-.576-3.515.862-7.469 4.313-9.665 2.014-1.465 2.445-3.954 0-4.833-3.45-1.318-2.732-5.565.72-5.565h20.994c3.307 0 7.333 2.49 7.333 10.544 0 8.055-3.738 7.322-3.738 13.034 0 2.49 2.013 5.125 4.457 5.418 4.17.44 6.615-1.172 6.615-7.03 0-6.003-3.451-8.786-3.451-13.765 0-6.004 3.738-8.347 6.183-8.347h6.04c3.45 0 4.17 4.247.718 5.565-2.444 1.025-2.013 3.514 0 4.832zm42.786 18.891h-5.752V20.556h5.752V49.55zm4.314-10.104c0-6.15 4.17-10.69 10.497-10.69 4.314 0 6.327 1.903 6.327 1.903l-1.438 4.1s-1.87-1.17-4.314-1.17c-3.02 0-5.32 2.196-5.32 5.857 0 3.66 2.3 5.858 5.32 5.858 2.445 0 4.314-1.172 4.314-1.172l1.438 4.1s-2.013 1.904-6.183 1.904c-6.471-.146-10.641-4.54-10.641-10.69zm29.047 10.544c-5.752 0-10.497-4.1-10.497-10.544 0-6.444 4.745-10.69 10.497-10.69s10.353 4.246 10.353 10.69c.144 6.443-4.601 10.544-10.353 10.544zm4.889-10.544c0-3.661-2.013-6.004-4.746-6.004-2.875 0-4.889 2.49-4.889 6.004 0 3.66 2.014 6.004 4.89 6.004 2.732 0 4.745-2.343 4.745-6.004zm9.49 10.104V29.196h4.335l.41 2.782c1.582-2.343 3.308-3.368 6.471-3.368 5.177 0 8.34 3.515 8.34 9.08V49.55h-5.751V38.275c0-2.49-1.438-4.393-4.027-4.393-2.588 0-4.026 2.197-4.026 4.1v11.57h-5.752zm21.857 2.636h1.007c1.294 0 1.725-.732 1.725-1.903V29.049h5.752v21.528c0 3.807-2.157 6.443-6.04 6.443h-2.444v-4.833zm2.157-29.435c0-1.903 1.438-3.368 3.308-3.368 1.869 0 3.45 1.465 3.45 3.368 0 1.904-1.581 3.222-3.45 3.222-1.726.147-3.308-1.318-3.308-3.222zm28.76 26.8h-3.883l-.719-2.49h-.288c-1.15 1.757-3.163 3.075-6.47 3.075-4.602 0-7.334-2.782-7.334-6.443 0-4.1 3.02-6.737 9.06-6.737 1.725 0 3.019.293 4.025.586v-.586c0-2.49-1.725-3.368-4.745-3.368-2.876 0-5.176 1.465-5.176 1.465l-1.87-4.247s2.876-1.904 8.053-1.904c6.04 0 9.203 3.368 9.203 8.2v12.448h.144zm-5.465-7.176v-1.611c-.575-.293-1.581-.586-3.45-.586-2.877 0-4.315 1.172-4.315 3.075 0 1.758 1.294 2.783 3.451 2.783 2.301 0 4.17-1.465 4.314-3.661zm21.713-8.201h-1.006c-2.588 0-4.602 1.904-4.602 4.979v10.544h-5.751V29.342h4.085l.66 2.93c.43-.879 1.02-1.542 1.767-2.013.998-.63 2.278-.917 3.84-.917h1.151v4.833h-.144z"/></svg>
